<svg xmlns="http://www.w3.org/2000/svg" width="100.973" height="100.973" viewBox="0 0 100.973 100.973">
  <g id="Love_" data-name="Love&apos;" transform="translate(-192.259 -76.069)">
    <g id="Group_4639" data-name="Group 4639">
      <circle id="Ellipse_467" data-name="Ellipse 467" cx="50.487" cy="50.487" r="50.487" transform="translate(192.259 76.069)" fill="#d13e3e"/>
      <path id="Path_11836" data-name="Path 11836" d="M272.838,119.678a17.864,17.864,0,0,0-5.083-10.5h0c-5.767-5.961-13.043-5.13-18.811.831l-6.192,7.9-6.137-7.9c-5.768-5.961-13.111-6.792-18.878-.831h0a17.869,17.869,0,0,0-5.082,10.5c-1.143,9.673,3.972,22.4,30.086,36.937v.006l.006,0,.006,0v-.006C268.866,142.078,273.981,129.351,272.838,119.678Z" fill="#fff"/>
    </g>
  </g>
</svg>
