<svg xmlns="http://www.w3.org/2000/svg" width="100.973" height="100.973" viewBox="0 0 100.973 100.973">
  <g id="LOL" transform="translate(-61.275 -217.841)">
    <g id="Group_4622" data-name="Group 4622">
      <g id="Group_4620" data-name="Group 4620">
        <circle id="Ellipse_459" data-name="Ellipse 459" cx="50.487" cy="50.487" r="50.487" transform="translate(61.275 217.841)" fill="#ffd530"/>
        <g id="Group_4663" data-name="Group 4663" transform="translate(-1188.869 -27.183)">
          <g id="Group_4661" data-name="Group 4661" transform="translate(1270.929 277.662)">
            <ellipse id="Ellipse_472" data-name="Ellipse 472" cx="9.866" cy="10.203" rx="9.866" ry="10.203" transform="translate(0)" fill="#87594a"/>
            <path id="Path_11864" data-name="Path 11864" d="M1289.287,292.069a3.707,3.707,0,1,1-3.707-3.707A3.707,3.707,0,0,1,1289.287,292.069Z" transform="translate(-1275.714 -285.821)" fill="#fff"/>
            <path id="Path_11865" data-name="Path 11865" d="M1349.634,294.923a9.872,9.872,0,1,1-9.866-10.2A10.039,10.039,0,0,1,1349.634,294.923Z" transform="translate(-1290.233 -284.72)" fill="#87594a"/>
            <path id="Path_11866" data-name="Path 11866" d="M1346.143,292.069a3.707,3.707,0,1,1-3.707-3.707A3.707,3.707,0,0,1,1346.143,292.069Z" transform="translate(-1292.901 -285.821)" fill="#fff"/>
          </g>
          <path id="Path_11867" data-name="Path 11867" d="M1270.689,269.332a13.569,13.569,0,0,1,10.855-2.572,3.286,3.286,0,0,0,3.628-1.547l.02-.047c.594-1.269-.569-3.047-2.67-3.453a18.71,18.71,0,0,0-14.972,3.546c-1.7,1.305-1.938,3.415-.837,4.284l.039.033A3.286,3.286,0,0,0,1270.689,269.332Z" transform="translate(0)" fill="#fbd69e" style="mix-blend-mode: multiply;isolation: isolate"/>
          <path id="Path_11868" data-name="Path 11868" d="M1352.177,269.332a13.568,13.568,0,0,0-10.855-2.572,3.286,3.286,0,0,1-3.628-1.547l-.02-.047c-.594-1.269.569-3.047,2.67-3.453a18.71,18.71,0,0,1,14.971,3.546c1.7,1.305,1.937,3.415.837,4.284l-.039.033A3.287,3.287,0,0,1,1352.177,269.332Z" transform="translate(-21.606)" fill="#fbd69e" style="mix-blend-mode: multiply;isolation: isolate"/>
          <g id="Group_4662" data-name="Group 4662" transform="translate(1277.281 303.815)">
            <path id="Path_11869" data-name="Path 11869" d="M1328.846,339.63c0,7.687-4.957,14.372-12.257,17.793a26.067,26.067,0,0,1-9.89,2.395c-.4.019-.8.025-1.2.025s-.8-.006-1.2-.025a26.066,26.066,0,0,1-9.889-2.395c-7.3-3.421-12.257-10.106-12.257-17.793a15.092,15.092,0,0,1,2.475-8.489c3.836-5.8,11.743-8.938,20.873-8.938s17.037,3.138,20.873,8.938A15.092,15.092,0,0,1,1328.846,339.63Z" transform="translate(-1282.15 -322.203)" fill="#87594a"/>
            <path id="Path_11870" data-name="Path 11870" d="M1321.9,371.236a26.067,26.067,0,0,1-9.889,2.395c-.4.019-.8.025-1.2.025s-.8-.006-1.2-.025a26.066,26.066,0,0,1-9.889-2.395c2.284-2,6.394-3.34,11.091-3.34S1319.62,369.231,1321.9,371.236Z" transform="translate(-1287.46 -336.015)" fill="#ee6571"/>
          </g>
        </g>
      </g>
    </g>
  </g>
</svg>
