<svg xmlns="http://www.w3.org/2000/svg" width="100.973" height="100.973" viewBox="0 0 100.973 100.973">
  <g id="Smile" transform="translate(-325.825 -76.851)">
    <g id="Group_4651" data-name="Group 4651">
      <circle id="Ellipse_468" data-name="Ellipse 468" cx="50.487" cy="50.487" r="50.487" transform="translate(325.825 76.851)" fill="#ffd530"/>
      <g id="Group_4654" data-name="Group 4654" transform="translate(-148.852 -575.475)">
        <path id="Path_11849" data-name="Path 11849" d="M563.306,714.864a37.492,37.492,0,0,1-1.779,5.389,39,39,0,0,1-21.875,21.272,40.057,40.057,0,0,1-28.979,0A39.057,39.057,0,0,1,488.8,720.252a37.793,37.793,0,0,1-1.779-5.389,3.178,3.178,0,0,1,3.1-3.924h70.091A3.177,3.177,0,0,1,563.306,714.864Z" fill="#87594a"/>
        <path id="Path_11850" data-name="Path 11850" d="M544.8,747.162a40.073,40.073,0,0,1-28.977,0c2.8-2.747,8.239-4.608,14.489-4.608S542.008,744.415,544.8,747.162Z" transform="translate(-5.153 -5.636)" fill="#ee6571"/>
        <path id="Path_11851" data-name="Path 11851" d="M563.306,714.864a37.492,37.492,0,0,1-1.779,5.389H488.8a37.793,37.793,0,0,1-1.779-5.389,3.178,3.178,0,0,1,3.1-3.924h70.091A3.177,3.177,0,0,1,563.306,714.864Z" fill="#fff"/>
      </g>
    </g>
    <g id="Group_4653" data-name="Group 4653" transform="translate(-539.838 -189.501)">
      <path id="Path_11847" data-name="Path 11847" d="M883.818,291.369c3.791,1.178,25.42,8.88,24.027,13.581s-16.541,10.8-24.027,10.8c-3.656,0,.174-4.875,4.875-6.442s15.5-4,6.443-7.313-11.1-5.224-12.774-6.268S882.082,290.83,883.818,291.369Z" transform="translate(0 0)" fill="#87594a"/>
      <path id="Path_11848" data-name="Path 11848" d="M958.87,291.369c-3.791,1.178-25.42,8.88-24.027,13.581s16.541,10.8,24.027,10.8c3.656,0-.174-4.875-4.875-6.442s-15.5-4-6.443-7.313,11.1-5.224,12.774-6.268S960.605,290.83,958.87,291.369Z" transform="translate(-10.388 0)" fill="#87594a"/>
    </g>
  </g>
</svg>
