<svg xmlns="http://www.w3.org/2000/svg" xmlns:xlink="http://www.w3.org/1999/xlink" width="100.973" height="100.973" viewBox="0 0 100.973 100.973">
  <defs>
    <linearGradient id="linear-gradient" x1="0.5" y1="1" x2="0.5" gradientUnits="objectBoundingBox">
      <stop offset="0.05" stop-color="#ffd530"/>
      <stop offset="1" stop-color="#fe5140"/>
    </linearGradient>
  </defs>
  <g id="Angry" transform="translate(-325.708 -222.993)">
    <g id="Group_4612" data-name="Group 4612">
      <g id="Group_4605" data-name="Group 4605">
        <circle id="Ellipse_456" data-name="Ellipse 456" cx="50.487" cy="50.487" r="50.487" transform="translate(325.708 222.993)" fill="url(#linear-gradient)"/>
      </g>
    </g>
    <g id="Group_4657" data-name="Group 4657" transform="translate(-926.924 -217.052)">
      <g id="Group_4655" data-name="Group 4655" transform="translate(1272.228 477.325)">
        <ellipse id="Ellipse_469" data-name="Ellipse 469" cx="10.261" cy="10.612" rx="10.261" ry="10.612" transform="translate(0 0)" fill="#87594a"/>
        <path id="Path_11852" data-name="Path 11852" d="M1289.584,488.586a3.855,3.855,0,1,1-3.855-3.855A3.855,3.855,0,0,1,1289.584,488.586Z" transform="translate(-1275.468 -482.088)" fill="#fff"/>
      </g>
      <path id="Path_11853" data-name="Path 11853" d="M1291.845,472.482a15.324,15.324,0,0,0-11.608-4.892,3.709,3.709,0,0,1-3.751-2.4l-.013-.057c-.424-1.525,1.2-3.287,3.619-3.347a21.133,21.133,0,0,1,16.01,6.747c1.644,1.771,1.519,4.166.132,4.927l-.05.031A3.711,3.711,0,0,1,1291.845,472.482Z" transform="translate(-4.177 1.058)" fill="#fbd69e" style="mix-blend-mode: multiply;isolation: isolate"/>
      <path id="Path_11854" data-name="Path 11854" d="M1333.756,472.482a15.323,15.323,0,0,1,11.607-4.892,3.709,3.709,0,0,0,3.752-2.4l.013-.057c.424-1.525-1.2-3.287-3.618-3.347a21.131,21.131,0,0,0-16.01,6.747c-1.644,1.771-1.519,4.166-.132,4.927l.049.031A3.711,3.711,0,0,0,1333.756,472.482Z" transform="translate(-15.187 1.058)" fill="#fbd69e" style="mix-blend-mode: multiply;isolation: isolate"/>
      <g id="Group_4656" data-name="Group 4656" transform="translate(1313.487 477.325)">
        <ellipse id="Ellipse_470" data-name="Ellipse 470" cx="10.261" cy="10.612" rx="10.261" ry="10.612" transform="translate(0 0)" fill="#87594a"/>
        <path id="Path_11855" data-name="Path 11855" d="M1346.44,488.586a3.855,3.855,0,1,1-3.855-3.855A3.855,3.855,0,0,1,1346.44,488.586Z" transform="translate(-1332.324 -482.088)" fill="#fff"/>
      </g>
      <path id="Path_11856" data-name="Path 11856" d="M1325.181,532.716c0,3.48-3.475,6.508-8.592,8.056a26.755,26.755,0,0,1-6.932,1.084c-.28.009-.56.011-.843.011s-.562,0-.842-.011a26.757,26.757,0,0,1-6.932-1.084c-5.117-1.549-8.591-4.576-8.591-8.056a5.269,5.269,0,0,1,1.735-3.844c2.689-2.626,8.231-4.047,14.631-4.047s11.943,1.421,14.631,4.047A5.269,5.269,0,0,1,1325.181,532.716Z" transform="translate(-5.695 -9.165)" fill="#87594a"/>
    </g>
  </g>
</svg>
