<svg xmlns="http://www.w3.org/2000/svg" width="100.973" height="100.973" viewBox="0 0 100.973 100.973">
  <g id="Like" transform="translate(-215 -225)">
    <g id="Group_4638" data-name="Group 4638" transform="translate(155.013 148.581)">
      <g id="Group_4637" data-name="Group 4637">
        <circle id="Ellipse_466" data-name="Ellipse 466" cx="50.487" cy="50.487" r="50.487" transform="translate(59.987 76.419)" fill="#1eb2c4"/>
      </g>
    </g>
    <path id="Union_54" data-name="Union 54" d="M-7080.317,1279.764l-26.727-1.173a1.654,1.654,0,0,1-1.551-1.717l1.11-33.375a4.111,4.111,0,0,1,2.358-3.6l.016-.006a13.816,13.816,0,0,1,1.978-.362h.006a9.009,9.009,0,0,0,3.25-.772c2.647-1.844,3.975-4.657,5.259-7.378l.006-.014.029-.06.063-.13.012-.023c.271-.575.608-1.288.943-1.929v-.008c.578-1.1,2.328-4.458,4.4-5.106a2.3,2.3,0,0,1,.591-.1.959.959,0,0,1,.109,0,2.57,2.57,0,0,1,1.213.324c2.941,1.555,1.213,7.452.562,9.671a38.311,38.311,0,0,1-3.7,8.455l-.71,1.218,18.363.809a3.917,3.917,0,0,1,3.784,3.736,3.781,3.781,0,0,1-1.123,2.833,3.624,3.624,0,0,1-2.56,1.056c-.047,0-.1,0-.144,0h-.028l-2.139-.094-9.332-.409-.074,1.7,9.332.407a3.723,3.723,0,0,1,2.667,1.3,3.866,3.866,0,0,1,.937,2.935,3.779,3.779,0,0,1-3.823,3.379c-.058,0-.121,0-.179,0l-1.975-.084-8.9-.392-.074,1.7,8.9.39a3.727,3.727,0,0,1,2.667,1.3,3.861,3.861,0,0,1,.937,2.933,3.782,3.782,0,0,1-3.825,3.383c-.058,0-.119,0-.177,0l-1.976-.088-8.474-.372-.074,1.7,8.474.372a3.729,3.729,0,0,1,2.667,1.3,3.858,3.858,0,0,1,.936,2.933,3.782,3.782,0,0,1-3.827,3.383C-7080.2,1279.766-7080.261,1279.766-7080.317,1279.764Zm-37.4,0-.09,0a6.558,6.558,0,0,1-6.191-6.8l.907-27.293a6.439,6.439,0,0,1,2.071-4.552,6.214,6.214,0,0,1,3.954-1.672c.082,0,.172-.006.291-.006s.212,0,.292.006a6.557,6.557,0,0,1,6.191,6.8l-.9,27.293a6.441,6.441,0,0,1-2.073,4.548,6.245,6.245,0,0,1-4.26,1.682C-7117.587,1279.766-7117.652,1279.764-7117.714,1279.762Z" transform="translate(7364.843 -979.734)" fill="#fff"/>
  </g>
</svg>
