<svg xmlns="http://www.w3.org/2000/svg" xmlns:xlink="http://www.w3.org/1999/xlink" width="100.973" height="100.973" viewBox="0 0 100.973 100.973">
  <defs>
    <linearGradient id="linear-gradient" y1="0.5" x2="1" y2="0.5" gradientUnits="objectBoundingBox">
      <stop offset="0" stop-color="#2e92db"/>
      <stop offset="0.041" stop-color="#2d98df"/>
      <stop offset="0.197" stop-color="#2baded"/>
      <stop offset="0.351" stop-color="#2ab9f5"/>
      <stop offset="0.5" stop-color="#2abef8"/>
      <stop offset="0.647" stop-color="#2ab9f5"/>
      <stop offset="0.804" stop-color="#2bacec"/>
      <stop offset="0.965" stop-color="#2d97de"/>
      <stop offset="1" stop-color="#2e92db"/>
    </linearGradient>
  </defs>
  <g id="Sad" transform="translate(-194.987 -215.312)">
    <g id="Group_4633" data-name="Group 4633">
      <g id="Group_4631" data-name="Group 4631">
        <circle id="Ellipse_463" data-name="Ellipse 463" cx="50.487" cy="50.487" r="50.487" transform="translate(194.987 215.312)" fill="#ffd530"/>
      </g>
      <g id="Group_4660" data-name="Group 4660" transform="translate(-463.068 -220.442)">
        <path id="Path_11857" data-name="Path 11857" d="M722.4,539.6h.38a20.9,20.9,0,0,1,12.051,3.694.815.815,0,0,0,1.3-.81c-1.984-6.151-7.234-10.547-13.4-10.547h-.288c-6.168,0-11.418,4.4-13.4,10.547a.815.815,0,0,0,1.3.81A20.907,20.907,0,0,1,722.4,539.6Z" transform="translate(-13.411 -24.319)" fill="#87594a"/>
        <path id="Path_11858" data-name="Path 11858" d="M678.87,466.95a13.21,13.21,0,0,1,9.15-5.852,3.2,3.2,0,0,0,2.837-2.588l0-.05c.138-1.357-1.5-2.618-3.564-2.316a18.22,18.22,0,0,0-12.62,8.07c-1.139,1.745-.683,3.762.607,4.206l.046.018A3.2,3.2,0,0,0,678.87,466.95Z" transform="translate(-2.194)" fill="#fbd69e" style="mix-blend-mode: multiply;isolation: isolate"/>
        <path id="Path_11859" data-name="Path 11859" d="M771.182,466.95a13.21,13.21,0,0,0-9.15-5.852,3.2,3.2,0,0,1-2.838-2.588l0-.05c-.138-1.357,1.5-2.618,3.564-2.316a18.217,18.217,0,0,1,12.619,8.07c1.139,1.745.683,3.762-.607,4.206l-.047.018A3.2,3.2,0,0,1,771.182,466.95Z" transform="translate(-29.501)" fill="#fbd69e" style="mix-blend-mode: multiply;isolation: isolate"/>
        <g id="Group_4658" data-name="Group 4658" transform="translate(679.321 470.504)">
          <path id="Path_11860" data-name="Path 11860" d="M706.27,488.036a9.924,9.924,0,1,1-9.918-10.257A10.092,10.092,0,0,1,706.27,488.036Z" transform="translate(-686.434 -477.779)" fill="#87594a"/>
          <path id="Path_11861" data-name="Path 11861" d="M702.714,485.148a3.726,3.726,0,1,1-3.727-3.727A3.726,3.726,0,0,1,702.714,485.148Z" transform="translate(-689.069 -478.866)" fill="#fff"/>
          <ellipse id="Ellipse_471" data-name="Ellipse 471" cx="9.918" cy="10.257" rx="9.918" ry="10.257" transform="translate(39.88)" fill="#87594a"/>
          <path id="Path_11862" data-name="Path 11862" d="M759.568,485.148a3.726,3.726,0,1,1-3.726-3.727A3.726,3.726,0,0,1,759.568,485.148Z" transform="translate(-706.044 -478.866)" fill="#fff"/>
        </g>
        <g id="Group_4659" data-name="Group 4659" transform="translate(667.186 497.949)">
          <path id="Path_11863" data-name="Path 11863" d="M674.508,513.717a22.938,22.938,0,0,0,4.354-7.623.4.4,0,0,1,.741-.022,30.215,30.215,0,0,0,4.149,7.236c2.6,3.033,13.657,15.178,3.467,24.931-5.42,4.554-13.222,3.9-17.127-1.085S664.967,524.125,674.508,513.717Z" transform="translate(-667.186 -505.827)" fill="url(#linear-gradient)"/>
        </g>
      </g>
    </g>
  </g>
</svg>
